<?xml version="1.0" encoding="UTF-8" standalone="no"?> <svg xmlns="http://www.w3.org/2000/svg" xmlns:xlink="http://www.w3.org/1999/xlink" viewBox="0 0 64 64"><defs><style>.cls-1{fill:url(#linear-gradient);}.cls-2{fill:url(#linear-gradient-2);}.cls-3{fill:url(#linear-gradient-3);}.cls-4{fill:url(#linear-gradient-4);}</style><linearGradient id="linear-gradient" x1="9.1" y1="35.12" x2="54.99" y2="35.12" gradientUnits="userSpaceOnUse"><stop offset="0" stop-color="#0e5df8"/><stop offset="0.31" stop-color="#0f4ee0"/><stop offset="0.96" stop-color="#1026a3"/><stop offset="1" stop-color="#10249f"/></linearGradient><linearGradient id="linear-gradient-2" x1="15.62" y1="17.74" x2="52.99" y2="17.74" gradientUnits="userSpaceOnUse"><stop offset="0" stop-color="#ffe500"/><stop offset="1" stop-color="#fcb415"/></linearGradient><linearGradient id="linear-gradient-3" x1="29.54" y1="41.31" x2="54.99" y2="41.31" xlink:href="#linear-gradient-2"/><linearGradient id="linear-gradient-4" x1="9.02" y1="38.76" x2="27.92" y2="38.76" xlink:href="#linear-gradient-2"/></defs><title>1</title><g id="Layer_28" data-name="Layer 28"><path class="cls-1" d="M55,31.73v0a22.6,22.6,0,0,0-2-9.15.14.14,0,0,0,0-.06l-.1-.24a1,1,0,0,0-.26-.28,17.16,17.16,0,0,0-3.29-1.89c-7.61-3.35-18.59-2.1-28.71,3.5a17.62,17.62,0,0,1-2.88-7c0-.16-.06-.33-.09-.5a1,1,0,0,0-1.14-.84,1.1,1.1,0,0,0-.48.21s0,0,0,0l-.21.2A22.81,22.81,0,0,0,9.15,29.56s0,0,0,0a.72.72,0,0,0,0,.36.75.75,0,0,0,0,.26,19.24,19.24,0,0,0,2,4h0a19.9,19.9,0,0,0,13.45,8.89,18.07,18.07,0,0,1-7.68,3.5l-.51.09a1,1,0,0,0-.83,1.14,1.06,1.06,0,0,0,.21.47.75.75,0,0,0,.16.15,22.69,22.69,0,0,0,14.3,6.47h0a1,1,0,0,0,.3.05h.16a1.34,1.34,0,0,0,.26-.09,30.73,30.73,0,0,0,3.71-2c8.48-5.49,13-14.51,11.31-23a17.77,17.77,0,0,1,7,2.68,4.43,4.43,0,0,1,.46.29,1,1,0,0,0,1.39-.26,1,1,0,0,0,.16-.37h0C55,32,55,31.87,55,31.73Z"/><path class="cls-2" d="M16,18.37A19.93,19.93,0,0,0,19.11,25a16.64,16.64,0,0,0,1.17,1.49.29.29,0,0,0,.13,0l.42-.23c.43-.23.86-.46,1.29-.67,10.4-5.26,22.59-6.66,29-2.09l.23.16a1,1,0,0,0,1.39-.21,1,1,0,0,0,.17-.82.14.14,0,0,0,0-.06l-.09-.22s0,0,0,0A23,23,0,0,0,16,15.5s0,0,0,0a1,1,0,0,0-.32.89C15.73,17.09,15.87,17.74,16,18.37Z"/><path class="cls-3" d="M55,31.73v0a1,1,0,0,0-.41-.59,19.22,19.22,0,0,0-1.67-1h0a20.12,20.12,0,0,0-8-2.43h-.26a.85.85,0,0,0-.22,0,1,1,0,0,0-.69,1.24l.18.68C46,38.44,40.43,48.12,30.38,52.92l-.27.13a1,1,0,0,0-.48,1.33,1,1,0,0,0,.6.53h0a1,1,0,0,0,.3.05h.16c.43,0,.87,0,1.3,0a23.13,23.13,0,0,0,8.66-1.68A23,23,0,0,0,55,32.14h0C55,32,55,31.87,55,31.73Z"/><path class="cls-4" d="M26.91,41.34l-.38,0A17.88,17.88,0,0,1,11.14,29.77a2.61,2.61,0,0,1-.1-.25,1,1,0,0,0-1.28-.6,1,1,0,0,0-.61.64s0,0,0,0a.72.72,0,0,0,0,.36,22.91,22.91,0,0,0,6.63,18.32l0,0a.75.75,0,0,0,.16.15,1,1,0,0,0,.62.22h.16c.66-.11,1.32-.25,2-.42a19.78,19.78,0,0,0,8.91-5.15h0l0,0h0a1,1,0,0,0-.05-1.41A1,1,0,0,0,26.91,41.34Z"/><path d="M55,32.09s0-.09,0-.14a1,1,0,0,0,0-.22,23,23,0,0,0-2-9.12,1,1,0,0,0-.2-.42A23,23,0,0,0,9.13,29.68a1,1,0,0,0,0,.19,23,23,0,0,0,6.62,18.39l.13.12.07.07a22.88,22.88,0,0,0,14.29,6.46,1,1,0,0,0,.3.05l.13,0c.44,0,.89.06,1.33.06A23,23,0,0,0,55,32.15S55,32.11,55,32.09ZM30.38,52.91a20.9,20.9,0,0,1-11.72-4.7,19.89,19.89,0,0,0,9-5.17h0A19.86,19.86,0,0,0,33.1,32.7a18,18,0,0,1,10.76-3.09C46,38.45,40.42,48.11,30.38,52.91ZM11.13,34.2a19.9,19.9,0,0,0,13.44,8.88,17.88,17.88,0,0,1-7.67,3.5A20.89,20.89,0,0,1,11.13,34.2ZM31,32.86a17.86,17.86,0,0,1-4.51,8.45A17.91,17.91,0,0,1,11.14,29.76,20.88,20.88,0,0,1,16,18.38,19.93,19.93,0,0,0,31,32.86Zm13.72-5.22A20.06,20.06,0,0,0,32,31,18,18,0,0,1,21.84,25.2c10.66-5.8,22.59-6.52,29.31-1.77a21,21,0,0,1,1.75,6.67A20,20,0,0,0,44.75,27.64Zm2.1-10.49a21,21,0,0,1,2.43,2.94c-7.61-3.34-18.57-2.1-28.69,3.5a17.92,17.92,0,0,1-2.88-6.95,21,21,0,0,1,29.14.51Zm0,29.7a20.87,20.87,0,0,1-12.18,6c8.48-5.49,13-14.51,11.29-23a18,18,0,0,1,7,2.67A20.91,20.91,0,0,1,46.85,46.85Z"/></g></svg>