<svg version="1.1" id="Layer_1" xmlns="http://www.w3.org/2000/svg" xmlns:xlink="http://www.w3.org/1999/xlink" x="0px" y="0px"
	 width="100%" viewBox="0 0 532 274" enable-background="new 0 0 532 274" xml:space="preserve">
<path fill="#FF8F1C" opacity="1.000000" stroke="none" 
	d="
M399.000000,275.000000 
	C266.041077,275.000000 133.582184,275.000000 1.061637,275.000000 
	C1.061637,183.736115 1.061637,92.472183 1.061637,1.104124 
	C178.333313,1.104124 355.666656,1.104124 532.979187,1.104124 
	C532.979187,92.417740 532.979187,183.708878 532.979187,275.000000 
	C488.472260,275.000000 443.986115,275.000000 399.000000,275.000000 
M192.367203,135.145004 
	C199.821304,146.718201 209.484818,156.071686 221.817291,162.123199 
	C248.605270,175.268005 275.239563,174.408356 300.073547,157.765442 
	C324.658997,141.289154 336.405457,117.394379 334.078430,87.700111 
	C331.720581,57.612522 316.101624,35.690845 288.784821,23.401974 
	C262.180145,11.433480 235.837219,14.198973 212.190613,31.357374 
	C178.717117,55.646355 170.754791,98.440804 192.367203,135.145004 
M472.365601,215.289307 
	C470.953857,209.318069 467.721710,204.251328 461.399017,203.953506 
	C448.516876,203.346680 435.586121,203.771851 422.469238,203.771851 
	C422.469238,220.128479 422.469238,236.325500 422.469238,252.865356 
	C435.560852,252.865356 448.351929,253.214325 461.112518,252.740952 
	C469.420990,252.432709 475.959991,244.888199 474.159149,236.556580 
	C472.665863,229.647583 471.990845,223.001450 472.365601,215.289307 
M120.882446,252.928787 
	C121.977669,251.705185 123.431702,250.648972 124.096275,249.224472 
	C125.664062,245.863953 126.855820,242.328018 128.199661,238.863022 
	C128.584702,238.978699 128.969727,239.094376 129.354767,239.210037 
	C129.354767,243.647064 129.354767,248.084076 129.354767,252.552231 
	C133.464569,252.552231 137.171738,252.552231 140.920624,252.552231 
	C140.920624,236.071640 140.920624,219.983963 140.920624,203.635193 
	C139.396362,203.502960 138.104675,203.276901 136.816925,203.297409 
	C127.516533,203.445633 129.463257,201.830795 126.003754,210.708191 
	C122.879730,218.724670 119.841095,226.774429 116.406433,235.745575 
	C115.354736,233.264099 114.608177,231.641342 113.971451,229.976593 
	C111.005455,222.221802 108.139771,214.427414 105.055984,206.720093 
	C104.528328,205.401306 103.222450,203.609848 102.091736,203.463791 
	C98.733559,203.029999 95.283394,203.308365 91.867241,203.308365 
	C91.867241,220.285339 91.867241,236.477859 91.867241,252.575287 
	C95.843948,252.575287 99.404564,252.575287 103.594528,252.575287 
	C103.594528,248.219193 103.594528,244.222702 103.594528,240.226196 
	C105.186974,241.177032 105.818367,242.261337 106.267792,243.416428 
	C109.975647,252.946213 109.965431,252.950195 120.882446,252.928787 
M362.718109,205.650238 
	C352.440033,201.410431 341.732452,203.587173 330.861359,203.163834 
	C330.861359,219.904556 330.861359,236.268951 330.861359,252.855682 
	C338.255585,252.855682 345.304138,253.430374 352.201874,252.658173 
	C356.978058,252.123459 362.351868,250.794830 366.065491,247.981812 
	C380.749664,236.858917 379.175842,216.174088 362.718109,205.650238 
M285.191193,238.885422 
	C290.845337,239.501221 296.262268,241.578751 297.410339,247.399704 
	C298.497040,252.909348 301.228851,253.470657 305.601257,252.966125 
	C307.040955,252.800003 308.515961,252.939972 311.644653,252.939972 
	C309.349335,246.251770 307.372498,240.491547 305.242798,234.285904 
	C310.649658,226.328354 312.424988,215.397324 309.848724,203.507690 
	C296.991486,203.507690 284.109894,203.507690 271.162720,203.507690 
	C271.162720,220.088409 271.162720,236.311401 271.162720,252.665573 
	C275.090912,252.665573 278.670959,252.665573 282.847992,252.665573 
	C282.847992,249.952805 282.660614,247.486130 282.904999,245.063004 
	C283.114960,242.981049 283.818115,240.948822 285.191193,238.885422 
M266.854645,218.921951 
	C259.289764,199.136688 235.697754,196.289978 224.262390,212.090088 
	C218.061859,220.657318 217.085815,230.063766 221.508240,239.481720 
	C225.644669,248.290588 232.714890,253.709854 242.899872,254.320709 
	C259.784637,255.333344 272.385590,237.281036 266.854645,218.921951 
M51.060936,221.408493 
	C47.529408,231.721497 43.997879,242.034500 40.263287,252.940506 
	C43.801964,252.940506 46.620251,252.771347 49.408173,252.989761 
	C52.014786,253.193954 53.654991,252.322418 53.929531,249.708038 
	C54.589157,243.426514 58.430908,241.988235 63.944916,242.828262 
	C64.920998,242.976959 65.968803,243.005890 66.932953,242.823273 
	C72.105034,241.843750 74.925064,243.900009 75.971329,249.082489 
	C76.258575,250.505325 77.774399,252.568100 78.968353,252.750076 
	C82.283211,253.255280 85.725357,252.925308 89.795082,252.925308 
	C85.115227,239.378784 80.811104,226.655487 76.319794,213.998627 
	C72.375000,202.881912 72.275917,202.815918 60.395924,203.591965 
	C58.936775,203.687271 56.911884,205.225479 56.317139,206.600296 
	C54.344872,211.159302 52.906548,215.949295 51.060936,221.408493 
M156.691208,213.073181 
	C152.161163,226.228928 147.631104,239.384674 142.962540,252.942703 
	C146.337372,252.942703 149.176529,252.752258 151.978073,252.995285 
	C154.887802,253.247711 156.568787,251.962830 156.873642,249.316360 
	C157.543930,243.497604 160.977585,242.055313 166.164444,242.823227 
	C167.468445,243.016281 168.853638,243.028732 170.152817,242.820419 
	C174.872101,242.063721 177.556122,243.779175 178.549728,248.639099 
	C178.873016,250.220352 180.476532,252.487015 181.805344,252.728287 
	C185.076813,253.322327 188.528687,252.922775 192.533112,252.922775 
	C186.886337,236.621628 181.584824,221.244904 176.183594,205.903290 
	C175.857162,204.976105 174.761795,203.686996 173.981735,203.656586 
	C169.501587,203.482010 164.724258,202.753586 160.644867,204.067291 
	C158.722229,204.686462 158.131210,209.440582 156.691208,213.073181 
M419.945435,219.502487 
	C419.945435,214.239655 419.945435,208.976822 419.945435,203.542175 
	C415.710724,203.542175 412.129761,203.542175 408.259033,203.542175 
	C408.157684,205.235764 407.999939,206.684464 407.995941,208.133606 
	C407.972107,216.785339 408.031372,225.437531 407.966644,234.088852 
	C407.924133,239.762894 404.895996,242.655136 399.281494,242.606018 
	C393.137299,242.552261 390.225525,239.631104 390.202576,233.353973 
	C390.166290,223.431870 390.192902,213.509537 390.192902,203.551315 
	C386.022339,203.551315 382.588959,203.551315 378.461609,203.551315 
	C378.461609,214.412247 378.283234,225.011597 378.509857,235.602280 
	C378.754669,247.042587 387.030273,254.400009 399.200745,254.425934 
	C410.928040,254.450912 419.272888,247.097015 419.846771,235.971207 
	C420.112152,230.826569 419.926575,225.658661 419.945435,219.502487 
M195.275574,224.514633 
	C195.275574,233.802795 195.275574,243.090958 195.275574,252.531769 
	C199.568848,252.531769 203.251724,252.531769 207.189941,252.531769 
	C207.189941,241.296875 207.283417,230.472610 207.132355,219.651779 
	C207.087677,216.451370 208.035980,215.040024 211.375687,215.293625 
	C214.138687,215.503433 216.930298,215.336533 219.644791,215.336533 
	C219.644791,210.968903 219.644791,207.231384 219.644791,203.442688 
	C207.194244,203.442688 195.116852,203.442688 182.804642,203.442688 
	C182.804642,207.461304 182.804642,211.180374 182.804642,215.507401 
	C187.034927,215.507401 190.934341,215.507401 194.581787,215.507401 
	C194.922958,216.419235 195.126511,216.720734 195.136307,217.028412 
	C195.205139,219.191467 195.234009,221.355789 195.275574,224.514633 
z"/>
<path fill="#FFFAF5" opacity="1.000000" stroke="none" 
	d="
M192.176300,134.837494 
	C170.754791,98.440804 178.717117,55.646355 212.190613,31.357374 
	C235.837219,14.198973 262.180145,11.433480 288.784821,23.401974 
	C316.101624,35.690845 331.720581,57.612522 334.078430,87.700111 
	C336.405457,117.394379 324.658997,141.289154 300.073547,157.765442 
	C275.239563,174.408356 248.605270,175.268005 221.817291,162.123199 
	C209.484818,156.071686 199.821304,146.718201 192.176300,134.837494 
M223.704315,84.344337 
	C253.143463,75.635109 275.608124,56.926548 295.735260,34.082001 
	C269.568634,19.471951 243.658829,18.431519 218.353027,35.024883 
	C198.844650,47.816803 188.681747,66.407021 186.700928,91.501434 
	C199.586044,89.060768 211.269150,86.847786 223.704315,84.344337 
M233.486282,145.029678 
	C225.803513,145.029678 218.120743,145.029678 209.617630,145.029678 
	C226.275864,163.153549 257.456879,169.486755 282.347931,159.784454 
	C304.753693,151.050919 319.187714,134.794800 325.214508,111.179955 
	C298.595215,132.518951 268.603577,144.311478 233.486282,145.029678 
M300.615906,71.119751 
	C269.890839,101.061600 232.820984,114.459999 188.769608,112.900246 
	C192.035294,116.637070 189.802094,122.662971 196.174835,122.609200 
	C207.656464,122.512321 219.223236,122.915787 230.599594,121.682251 
	C268.712524,117.549644 299.176270,99.053581 324.199921,69.880974 
	C321.908691,65.265686 319.496307,60.406269 316.765350,54.905224 
	C311.186401,60.507843 306.151642,65.563980 300.615906,71.119751 
M241.207031,84.711502 
	C224.017578,92.303680 205.927856,96.100075 186.840469,96.900307 
	C187.113678,99.490585 186.934433,101.601395 187.653046,103.341400 
	C188.182816,104.624207 189.883896,106.294930 191.064957,106.296417 
	C199.044952,106.306519 207.087677,106.461731 214.994354,105.557709 
	C240.509384,102.640388 263.699890,93.516533 283.626587,77.214172 
	C293.860779,68.841431 303.184601,59.355953 313.176788,50.136242 
	C308.962250,45.652721 305.486053,41.954662 301.644318,37.867729 
	C283.534424,56.792145 265.607239,74.373566 241.207031,84.711502 
M321.239380,82.635521 
	C287.500610,118.231575 245.567490,132.237198 196.987518,128.734940 
	C200.461044,137.836288 201.770844,138.811447 209.637207,138.811813 
	C215.966537,138.812119 222.295975,138.833359 228.625198,138.807800 
	C265.414917,138.659241 297.785828,127.019356 324.849426,101.685326 
	C326.110168,100.505173 327.813995,98.867287 327.818787,97.437614 
	C327.839478,91.234947 327.305817,85.030434 326.973694,78.826591 
	C326.516113,78.717445 326.058563,78.608299 325.601013,78.499153 
	C324.321655,79.706535 323.042328,80.913918 321.239380,82.635521 
z"/>
<path fill="#FFFCFA" opacity="1.000000" stroke="none" 
	d="
M472.461945,215.688644 
	C471.990845,223.001450 472.665863,229.647583 474.159149,236.556580 
	C475.959991,244.888199 469.420990,252.432709 461.112518,252.740952 
	C448.351929,253.214325 435.560852,252.865356 422.469238,252.865356 
	C422.469238,236.325500 422.469238,220.128479 422.469238,203.771851 
	C435.586121,203.771851 448.516876,203.346680 461.399017,203.953506 
	C467.721710,204.251328 470.953857,209.318069 472.461945,215.688644 
M435.062531,234.205658 
	C434.721466,236.316284 434.380432,238.426895 433.965790,240.992874 
	C442.479584,240.992874 450.094757,240.987976 457.709961,240.995605 
	C460.262268,240.998169 462.581604,240.484680 462.442078,237.317398 
	C462.302612,234.151443 459.890656,233.965042 457.384674,233.986969 
	C450.243744,234.049469 443.102020,234.027542 435.062531,234.205658 
M460.144897,220.915482 
	C461.756317,217.876114 461.205627,215.405945 457.535034,215.264877 
	C449.957611,214.973602 442.361145,215.177139 434.516205,215.177139 
	C434.516205,217.756241 434.516205,219.775528 434.516205,221.593582 
	C443.124451,221.593582 451.367401,221.593582 460.144897,220.915482 
z"/>
<path fill="#FFFCF8" opacity="1.000000" stroke="none" 
	d="
M120.447006,252.934921 
	C109.965431,252.950195 109.975647,252.946213 106.267792,243.416428 
	C105.818367,242.261337 105.186974,241.177032 103.594528,240.226196 
	C103.594528,244.222702 103.594528,248.219193 103.594528,252.575287 
	C99.404564,252.575287 95.843948,252.575287 91.867241,252.575287 
	C91.867241,236.477859 91.867241,220.285339 91.867241,203.308365 
	C95.283394,203.308365 98.733559,203.029999 102.091736,203.463791 
	C103.222450,203.609848 104.528328,205.401306 105.055984,206.720093 
	C108.139771,214.427414 111.005455,222.221802 113.971451,229.976593 
	C114.608177,231.641342 115.354736,233.264099 116.406433,235.745575 
	C119.841095,226.774429 122.879730,218.724670 126.003754,210.708191 
	C129.463257,201.830795 127.516533,203.445633 136.816925,203.297409 
	C138.104675,203.276901 139.396362,203.502960 140.920624,203.635193 
	C140.920624,219.983963 140.920624,236.071640 140.920624,252.552231 
	C137.171738,252.552231 133.464569,252.552231 129.354767,252.552231 
	C129.354767,248.084076 129.354767,243.647064 129.354767,239.210037 
	C128.969727,239.094376 128.584702,238.978699 128.199661,238.863022 
	C126.855820,242.328018 125.664062,245.863953 124.096275,249.224472 
	C123.431702,250.648972 121.977669,251.705185 120.447006,252.934921 
z"/>
<path fill="#FFFBF6" opacity="1.000000" stroke="none" 
	d="
M363.048279,205.832397 
	C379.175842,216.174088 380.749664,236.858917 366.065491,247.981812 
	C362.351868,250.794830 356.978058,252.123459 352.201874,252.658173 
	C345.304138,253.430374 338.255585,252.855682 330.861359,252.855682 
	C330.861359,236.268951 330.861359,219.904556 330.861359,203.163834 
	C341.732452,203.587173 352.440033,201.410431 363.048279,205.832397 
M351.915009,215.200684 
	C348.976135,215.200684 346.037292,215.200684 342.850189,215.200684 
	C342.850189,224.060150 342.850189,232.276108 342.850189,240.443710 
	C355.451599,242.373444 362.019531,239.207672 363.682159,230.598450 
	C365.212372,222.674896 361.402283,217.318161 351.915009,215.200684 
z"/>
<path fill="#FFFCFA" opacity="1.000000" stroke="none" 
	d="
M284.747192,238.890015 
	C283.818115,240.948822 283.114960,242.981049 282.904999,245.063004 
	C282.660614,247.486130 282.847992,249.952805 282.847992,252.665573 
	C278.670959,252.665573 275.090912,252.665573 271.162720,252.665573 
	C271.162720,236.311401 271.162720,220.088409 271.162720,203.507690 
	C284.109894,203.507690 296.991486,203.507690 309.848724,203.507690 
	C312.424988,215.397324 310.649658,226.328354 305.242798,234.285904 
	C307.372498,240.491547 309.349335,246.251770 311.644653,252.939972 
	C308.515961,252.939972 307.040955,252.800003 305.601257,252.966125 
	C301.228851,253.470657 298.497040,252.909348 297.410339,247.399704 
	C296.262268,241.578751 290.845337,239.501221 284.747192,238.890015 
M291.134583,226.723816 
	C298.345886,226.036942 299.642883,223.976151 298.031128,214.840042 
	C293.035889,215.162003 287.967102,215.488678 282.873474,215.816971 
	C282.873474,219.557312 282.851807,222.205688 282.894318,224.853012 
	C282.901611,225.306442 283.182739,225.755478 283.515900,226.727341 
	C285.678925,226.727341 287.963287,226.727341 291.134583,226.723816 
z"/>
<path fill="#FFFCFA" opacity="1.000000" stroke="none" 
	d="
M266.928345,219.311859 
	C272.385590,237.281036 259.784637,255.333344 242.899872,254.320709 
	C232.714890,253.709854 225.644669,248.290588 221.508240,239.481720 
	C217.085815,230.063766 218.061859,220.657318 224.262390,212.090088 
	C235.697754,196.289978 259.289764,199.136688 266.928345,219.311859 
M244.276230,241.707245 
	C251.223038,240.129654 255.107239,235.860245 255.726547,229.121384 
	C256.308868,222.784851 251.970306,216.367050 246.190247,215.014847 
	C240.492752,213.681992 234.446213,217.189423 232.501816,223.116257 
	C229.794388,231.369003 234.479614,241.295532 244.276230,241.707245 
z"/>
<path fill="#FFFCF9" opacity="1.000000" stroke="none" 
	d="
M51.162178,221.029602 
	C52.906548,215.949295 54.344872,211.159302 56.317139,206.600296 
	C56.911884,205.225479 58.936775,203.687271 60.395924,203.591965 
	C72.275917,202.815918 72.375000,202.881912 76.319794,213.998627 
	C80.811104,226.655487 85.115227,239.378784 89.795082,252.925308 
	C85.725357,252.925308 82.283211,253.255280 78.968353,252.750076 
	C77.774399,252.568100 76.258575,250.505325 75.971329,249.082489 
	C74.925064,243.900009 72.105034,241.843750 66.932953,242.823273 
	C65.968803,243.005890 64.920998,242.976959 63.944916,242.828262 
	C58.430908,241.988235 54.589157,243.426514 53.929531,249.708038 
	C53.654991,252.322418 52.014786,253.193954 49.408173,252.989761 
	C46.620251,252.771347 43.801964,252.940506 40.263287,252.940506 
	C43.997879,242.034500 47.529408,231.721497 51.162178,221.029602 
M64.582817,230.871628 
	C65.980873,230.765442 67.378929,230.659241 69.358505,230.508896 
	C67.927269,226.415741 66.680847,222.851135 64.967224,217.950394 
	C63.379669,222.429672 62.156059,225.447495 61.352753,228.573334 
	C61.217743,229.098663 62.900642,230.091187 64.582817,230.871628 
z"/>
<path fill="#FFFCF8" opacity="1.000000" stroke="none" 
	d="
M156.814011,212.697113 
	C158.131210,209.440582 158.722229,204.686462 160.644867,204.067291 
	C164.724258,202.753586 169.501587,203.482010 173.981735,203.656586 
	C174.761795,203.686996 175.857162,204.976105 176.183594,205.903290 
	C181.584824,221.244904 186.886337,236.621628 192.533112,252.922775 
	C188.528687,252.922775 185.076813,253.322327 181.805344,252.728287 
	C180.476532,252.487015 178.873016,250.220352 178.549728,248.639099 
	C177.556122,243.779175 174.872101,242.063721 170.152817,242.820419 
	C168.853638,243.028732 167.468445,243.016281 166.164444,242.823227 
	C160.977585,242.055313 157.543930,243.497604 156.873642,249.316360 
	C156.568787,251.962830 154.887802,253.247711 151.978073,252.995285 
	C149.176529,252.752258 146.337372,252.942703 142.962540,252.942703 
	C147.631104,239.384674 152.161163,226.228928 156.814011,212.697113 
M166.598007,221.188934 
	C165.591476,224.200699 164.584961,227.212448 163.448502,230.612976 
	C166.788940,230.612976 169.183502,230.612976 172.128693,230.612976 
	C170.827148,226.819229 169.666245,223.415283 168.427475,220.039886 
	C168.410843,219.994598 167.408447,220.311081 166.598007,221.188934 
z"/>
<path fill="#FFFBF7" opacity="1.000000" stroke="none" 
	d="
M419.945435,220.001892 
	C419.926575,225.658661 420.112152,230.826569 419.846771,235.971207 
	C419.272888,247.097015 410.928040,254.450912 399.200745,254.425934 
	C387.030273,254.400009 378.754669,247.042587 378.509857,235.602280 
	C378.283234,225.011597 378.461609,214.412247 378.461609,203.551315 
	C382.588959,203.551315 386.022339,203.551315 390.192902,203.551315 
	C390.192902,213.509537 390.166290,223.431870 390.202576,233.353973 
	C390.225525,239.631104 393.137299,242.552261 399.281494,242.606018 
	C404.895996,242.655136 407.924133,239.762894 407.966644,234.088852 
	C408.031372,225.437531 407.972107,216.785339 407.995941,208.133606 
	C407.999939,206.684464 408.157684,205.235764 408.259033,203.542175 
	C412.129761,203.542175 415.710724,203.542175 419.945435,203.542175 
	C419.945435,208.976822 419.945435,214.239655 419.945435,220.001892 
z"/>
<path fill="#FFFBF7" opacity="1.000000" stroke="none" 
	d="
M195.275604,224.017181 
	C195.234009,221.355789 195.205139,219.191467 195.136307,217.028412 
	C195.126511,216.720734 194.922958,216.419235 194.581787,215.507401 
	C190.934341,215.507401 187.034927,215.507401 182.804642,215.507401 
	C182.804642,211.180374 182.804642,207.461304 182.804642,203.442688 
	C195.116852,203.442688 207.194244,203.442688 219.644791,203.442688 
	C219.644791,207.231384 219.644791,210.968903 219.644791,215.336533 
	C216.930298,215.336533 214.138687,215.503433 211.375687,215.293625 
	C208.035980,215.040024 207.087677,216.451370 207.132355,219.651779 
	C207.283417,230.472610 207.189941,241.296875 207.189941,252.531769 
	C203.251724,252.531769 199.568848,252.531769 195.275574,252.531769 
	C195.275574,243.090958 195.275574,233.802795 195.275604,224.017181 
z"/>
<path fill="#FF901D" opacity="1.000000" stroke="none" 
	d="
M223.328293,84.489571 
	C211.269150,86.847786 199.586044,89.060768 186.700928,91.501434 
	C188.681747,66.407021 198.844650,47.816803 218.353027,35.024883 
	C243.658829,18.431519 269.568634,19.471951 295.735260,34.082001 
	C275.608124,56.926548 253.143463,75.635109 223.328293,84.489571 
z"/>
<path fill="#FF901E" opacity="1.000000" stroke="none" 
	d="
M233.982941,145.024200 
	C268.603577,144.311478 298.595215,132.518951 325.214508,111.179955 
	C319.187714,134.794800 304.753693,151.050919 282.347931,159.784454 
	C257.456879,169.486755 226.275864,163.153549 209.617630,145.029678 
	C218.120743,145.029678 225.803513,145.029678 233.982941,145.024200 
z"/>
<path fill="#FF911F" opacity="1.000000" stroke="none" 
	d="
M300.866394,70.869934 
	C306.151642,65.563980 311.186401,60.507843 316.765350,54.905224 
	C319.496307,60.406269 321.908691,65.265686 324.199921,69.880974 
	C299.176270,99.053581 268.712524,117.549644 230.599594,121.682251 
	C219.223236,122.915787 207.656464,122.512321 196.174835,122.609200 
	C189.802094,122.662971 192.035294,116.637070 188.769608,112.900246 
	C232.820984,114.459999 269.890839,101.061600 300.866394,70.869934 
z"/>
<path fill="#FF901E" opacity="1.000000" stroke="none" 
	d="
M241.529037,84.511612 
	C265.607239,74.373566 283.534424,56.792145 301.644318,37.867729 
	C305.486053,41.954662 308.962250,45.652721 313.176788,50.136242 
	C303.184601,59.355953 293.860779,68.841431 283.626587,77.214172 
	C263.699890,93.516533 240.509384,102.640388 214.994354,105.557709 
	C207.087677,106.461731 199.044952,106.306519 191.064957,106.296417 
	C189.883896,106.294930 188.182816,104.624207 187.653046,103.341400 
	C186.934433,101.601395 187.113678,99.490585 186.840469,96.900307 
	C205.927856,96.100075 224.017578,92.303680 241.529037,84.511612 
z"/>
<path fill="#FF911F" opacity="1.000000" stroke="none" 
	d="
M321.501190,82.378410 
	C323.042328,80.913918 324.321655,79.706535 325.601013,78.499153 
	C326.058563,78.608299 326.516113,78.717445 326.973694,78.826591 
	C327.305817,85.030434 327.839478,91.234947 327.818787,97.437614 
	C327.813995,98.867287 326.110168,100.505173 324.849426,101.685326 
	C297.785828,127.019356 265.414917,138.659241 228.625198,138.807800 
	C222.295975,138.833359 215.966537,138.812119 209.637207,138.811813 
	C201.770844,138.811447 200.461044,137.836288 196.987518,128.734940 
	C245.567490,132.237198 287.500610,118.231575 321.501190,82.378410 
z"/>
<path fill="#FF9120" opacity="1.000000" stroke="none" 
	d="
M435.511597,234.122253 
	C443.102020,234.027542 450.243744,234.049469 457.384674,233.986969 
	C459.890656,233.965042 462.302612,234.151443 462.442078,237.317398 
	C462.581604,240.484680 460.262268,240.998169 457.709961,240.995605 
	C450.094757,240.987976 442.479584,240.992874 433.965790,240.992874 
	C434.380432,238.426895 434.721466,236.316284 435.511597,234.122253 
z"/>
<path fill="#FF9528" opacity="1.000000" stroke="none" 
	d="
M459.877625,221.254532 
	C451.367401,221.593582 443.124451,221.593582 434.516205,221.593582 
	C434.516205,219.775528 434.516205,217.756241 434.516205,215.177139 
	C442.361145,215.177139 449.957611,214.973602 457.535034,215.264877 
	C461.205627,215.405945 461.756317,217.876114 459.877625,221.254532 
z"/>
<path fill="#FF901F" opacity="1.000000" stroke="none" 
	d="
M352.342163,215.228180 
	C361.402283,217.318161 365.212372,222.674896 363.682159,230.598450 
	C362.019531,239.207672 355.451599,242.373444 342.850189,240.443710 
	C342.850189,232.276108 342.850189,224.060150 342.850189,215.200684 
	C346.037292,215.200684 348.976135,215.200684 352.342163,215.228180 
z"/>
<path fill="#FF9529" opacity="1.000000" stroke="none" 
	d="
M290.691132,226.725586 
	C287.963287,226.727341 285.678925,226.727341 283.515900,226.727341 
	C283.182739,225.755478 282.901611,225.306442 282.894318,224.853012 
	C282.851807,222.205688 282.873474,219.557312 282.873474,215.816971 
	C287.967102,215.488678 293.035889,215.162003 298.031128,214.840042 
	C299.642883,223.976151 298.345886,226.036942 290.691132,226.725586 
z"/>
<path fill="#FF911F" opacity="1.000000" stroke="none" 
	d="
M243.895081,241.739700 
	C234.479614,241.295532 229.794388,231.369003 232.501816,223.116257 
	C234.446213,217.189423 240.492752,213.681992 246.190247,215.014847 
	C251.970306,216.367050 256.308868,222.784851 255.726547,229.121384 
	C255.107239,235.860245 251.223038,240.129654 243.895081,241.739700 
z"/>
<path fill="#FF992F" opacity="1.000000" stroke="none" 
	d="
M64.163193,230.869736 
	C62.900642,230.091187 61.217743,229.098663 61.352753,228.573334 
	C62.156059,225.447495 63.379669,222.429672 64.967224,217.950394 
	C66.680847,222.851135 67.927269,226.415741 69.358505,230.508896 
	C67.378929,230.659241 65.980873,230.765442 64.163193,230.869736 
z"/>
<path fill="#FF992F" opacity="1.000000" stroke="none" 
	d="
M166.732071,220.823822 
	C167.408447,220.311081 168.410843,219.994598 168.427475,220.039886 
	C169.666245,223.415283 170.827148,226.819229 172.128693,230.612976 
	C169.183502,230.612976 166.788940,230.612976 163.448502,230.612976 
	C164.584961,227.212448 165.591476,224.200699 166.732071,220.823822 
z"/>
</svg>