<svg version="1.1" id="Layer_1" xmlns="http://www.w3.org/2000/svg" xmlns:xlink="http://www.w3.org/1999/xlink" x="0px" y="0px"
	 width="100%" viewBox="0 0 130 140" enable-background="new 0 0 130 140" xml:space="preserve">
<!-- <path fill="#1C2127" opacity="1.000000" stroke="none" 
	d="
M81.000000,141.000000 
	C54.000000,141.000000 27.500000,141.000000 1.000000,141.000000 
	C1.000000,94.333336 1.000000,47.666668 1.000000,1.000000 
	C44.333332,1.000000 87.666664,1.000000 131.000000,1.000000 
	C131.000000,47.666668 131.000000,94.333336 131.000000,141.000000 
	C114.500000,141.000000 98.000000,141.000000 81.000000,141.000000 
M107.056305,67.934731 
	C107.056305,67.934731 106.918274,67.984207 107.391853,67.532661 
	C108.973236,68.283089 110.554619,69.033508 112.454399,69.935028 
	C111.978737,63.747486 111.911339,57.245941 110.895355,50.896168 
	C109.112228,39.751907 106.855377,28.678473 104.573532,17.621477 
	C103.682808,13.305335 100.611862,12.317315 96.545021,13.436852 
	C82.779076,17.226408 70.256920,23.733595 58.101242,31.017023 
	C57.172215,31.573679 56.780952,33.027843 56.139729,34.064831 
	C60.202766,35.092270 58.372215,39.088020 59.843716,41.424656 
	C62.121456,45.041534 65.430496,44.532951 68.719177,43.518654 
	C73.213921,42.132370 77.643646,40.535267 83.024551,38.716446 
	C82.330978,40.668610 82.208534,41.508888 81.781303,42.144203 
	C65.541138,66.294014 50.828083,91.606079 29.063728,111.563278 
	C28.088051,112.457932 26.483646,113.547340 26.526514,114.484047 
	C26.608801,116.282013 27.171516,118.960373 28.414345,119.622299 
	C31.353094,121.187439 34.761303,122.014648 38.072456,122.675110 
	C39.674217,122.994598 42.026257,122.873123 43.107903,121.908104 
	C47.935287,117.601326 53.014668,113.368637 56.916851,108.276787 
	C64.910301,97.846390 72.316582,86.957123 79.750404,76.109978 
	C84.406265,69.316322 88.671898,62.255230 93.968460,53.976429 
	C94.388016,63.605289 99.528450,67.035042 107.056305,67.934731 
z"/> -->
<path fill="#ffffff" opacity="1.000000" stroke="none" 
	d="
M106.974838,67.953514 
	C99.528450,67.035042 94.388016,63.605289 93.968460,53.976429 
	C88.671898,62.255230 84.406265,69.316322 79.750404,76.109978 
	C72.316582,86.957123 64.910301,97.846390 56.916851,108.276787 
	C53.014668,113.368637 47.935287,117.601326 43.107903,121.908104 
	C42.026257,122.873123 39.674217,122.994598 38.072456,122.675110 
	C34.761303,122.014648 31.353094,121.187439 28.414345,119.622299 
	C27.171516,118.960373 26.608801,116.282013 26.526514,114.484047 
	C26.483646,113.547340 28.088051,112.457932 29.063728,111.563278 
	C50.828083,91.606079 65.541138,66.294014 81.781303,42.144203 
	C82.208534,41.508888 82.330978,40.668610 83.024551,38.716446 
	C77.643646,40.535267 73.213921,42.132370 68.719177,43.518654 
	C65.430496,44.532951 62.121456,45.041534 59.843716,41.424656 
	C58.372215,39.088020 60.202766,35.092270 56.139725,34.064831 
	C56.780952,33.027843 57.172215,31.573679 58.101242,31.017023 
	C70.256920,23.733595 82.779076,17.226408 96.545021,13.436852 
	C100.611862,12.317315 103.682808,13.305335 104.573532,17.621477 
	C106.855377,28.678473 109.112228,39.751907 110.895355,50.896168 
	C111.911339,57.245941 111.978737,63.747486 112.454399,69.935028 
	C110.554619,69.033508 108.973236,68.283089 107.170578,67.749847 
	C106.949310,67.967026 106.974838,67.953514 106.974838,67.953514 
z"/>
<path fill="#5E6161" opacity="1.000000" stroke="none" 
	d="
M106.933792,67.975616 
	C106.918274,67.984207 107.056305,67.934731 107.015572,67.944122 
	C106.974838,67.953514 106.949310,67.967026 106.933792,67.975616 
z"/>
</svg>