<svg version="1.1" id="Layer_1" xmlns="http://www.w3.org/2000/svg" xmlns:xlink="http://www.w3.org/1999/xlink" x="0px" y="0px"
	 width="100%" viewBox="0 0 128 128" enable-background="new 0 0 128 128" xml:space="preserve">
<path fill="#FFFFFF" opacity="1.000000" stroke="none" 
	d="
M1.000000,55.000000 
	C1.000000,36.666668 1.000000,18.833334 1.000000,1.000000 
	C43.666668,1.000000 86.333336,1.000000 129.000000,1.000000 
	C129.000000,43.666668 129.000000,86.333336 129.000000,129.000000 
	C86.333336,129.000000 43.666668,129.000000 1.000000,129.000000 
	C1.000000,104.500000 1.000000,80.000000 1.000000,55.000000 
M102.314079,19.027390 
	C98.356323,16.972584 94.452797,14.804121 90.430267,12.885093 
	C79.961037,7.890531 68.822792,7.933925 57.821423,9.779002 
	C44.889450,11.947867 34.349133,18.664427 25.728069,28.674829 
	C13.878170,42.434414 10.812274,58.640327 13.547786,75.723160 
	C15.584007,88.439034 22.256676,99.209671 32.281586,107.957130 
	C46.021580,119.946266 62.213676,123.142761 79.244453,120.575371 
	C92.432976,118.587196 103.946281,111.949844 112.569344,101.008270 
	C124.682838,85.637802 128.158936,68.602554 123.326118,49.784664 
	C120.116768,37.288151 112.786957,27.495506 102.314079,19.027390 
z"/>
<path fill="#000000" opacity="1.000000" stroke="none" 
	d="
M102.627495,19.225258 
	C112.786957,27.495506 120.116768,37.288151 123.326118,49.784664 
	C128.158936,68.602554 124.682838,85.637802 112.569344,101.008270 
	C103.946281,111.949844 92.432976,118.587196 79.244453,120.575371 
	C62.213676,123.142761 46.021580,119.946266 32.281586,107.957130 
	C22.256676,99.209671 15.584007,88.439034 13.547786,75.723160 
	C10.812274,58.640327 13.878170,42.434414 25.728069,28.674829 
	C34.349133,18.664427 44.889450,11.947867 57.821423,9.779002 
	C68.822792,7.933925 79.961037,7.890531 90.430267,12.885093 
	C94.452797,14.804121 98.356323,16.972584 102.627495,19.225258 
M92.511292,23.955927 
	C81.931938,17.543278 70.566376,16.765368 58.671829,18.953907 
	C48.071354,20.904348 39.953262,26.679296 32.948673,34.527557 
	C22.722017,45.985977 20.315702,59.475864 22.611113,74.103889 
	C24.376934,85.356995 30.590240,94.045502 38.950169,101.534843 
	C51.386269,112.675888 70.091827,114.419838 84.276398,109.914124 
	C92.763390,107.218254 99.589699,101.981750 105.335350,95.201599 
	C115.040611,83.748878 118.190208,70.602623 115.517799,56.019329 
	C112.956528,42.042534 104.736534,31.872532 92.511292,23.955927 
z"/>
<path fill="#FFFFFF" opacity="1.000000" stroke="none" 
	d="
M92.889542,23.990307 
	C104.736534,31.872532 112.956528,42.042534 115.517799,56.019329 
	C118.190208,70.602623 115.040611,83.748878 105.335350,95.201599 
	C99.589699,101.981750 92.763390,107.218254 84.276398,109.914124 
	C70.091827,114.419838 51.386269,112.675888 38.950169,101.534843 
	C30.590240,94.045502 24.376934,85.356995 22.611113,74.103889 
	C20.315702,59.475864 22.722017,45.985977 32.948673,34.527557 
	C39.953262,26.679296 48.071354,20.904348 58.671829,18.953907 
	C70.566376,16.765368 81.931938,17.543278 92.889542,23.990307 
M74.000000,70.500122 
	C74.000000,63.396103 74.000000,56.292080 74.000000,49.286591 
	C70.689514,49.286591 67.950493,49.286591 65.282066,49.286591 
	C65.282066,65.316948 65.282066,81.059151 65.282066,96.713440 
	C68.310425,96.713440 71.049446,96.713440 74.000000,96.713440 
	C74.000000,88.119247 74.000000,79.809647 74.000000,70.500122 
M65.058861,33.699490 
	C65.058861,36.090439 65.058861,38.481388 65.058861,40.727692 
	C68.356041,40.727692 71.074242,40.727692 73.764435,40.727692 
	C73.764435,38.063614 73.764435,35.678089 73.764435,33.054031 
	C70.935608,33.054031 68.338799,33.054031 65.058861,33.699490 
z"/>
<path fill="#000000" opacity="1.000000" stroke="none" 
	d="
M74.000000,71.000084 
	C74.000000,79.809647 74.000000,88.119247 74.000000,96.713440 
	C71.049446,96.713440 68.310425,96.713440 65.282066,96.713440 
	C65.282066,81.059151 65.282066,65.316948 65.282066,49.286591 
	C67.950493,49.286591 70.689514,49.286591 74.000000,49.286591 
	C74.000000,56.292080 74.000000,63.396103 74.000000,71.000084 
z"/>
<path fill="#000000" opacity="1.000000" stroke="none" 
	d="
M65.400421,33.376762 
	C68.338799,33.054031 70.935608,33.054031 73.764435,33.054031 
	C73.764435,35.678089 73.764435,38.063614 73.764435,40.727692 
	C71.074242,40.727692 68.356041,40.727692 65.058861,40.727692 
	C65.058861,38.481388 65.058861,36.090439 65.400421,33.376762 
z"/>
</svg>