<svg version="1.1" id="Layer_1" xmlns="http://www.w3.org/2000/svg" xmlns:xlink="http://www.w3.org/1999/xlink" x="0px" y="0px"
	 width="100%" viewBox="0 0 86 87" enable-background="new 0 0 86 87" xml:space="preserve">
<!-- <path fill="#FFFEFD" opacity="1.000000" stroke="none" 
	d="
M59.000000,88.000000 
	C39.333340,88.000000 20.166676,88.000000 1.000010,88.000000 
	C1.000007,59.000011 1.000007,30.000023 1.000003,1.000026 
	C29.666649,1.000017 58.333298,1.000017 86.999954,1.000009 
	C86.999969,29.999975 86.999969,58.999950 86.999985,87.999962 
	C77.833336,88.000000 68.666664,88.000000 59.000000,88.000000 
M4.785939,52.578007 
	C11.000344,80.600296 42.333672,92.366394 64.551620,78.035912 
	C76.633141,70.243385 82.907028,59.122108 83.012489,44.728912 
	C83.119934,30.065351 76.739250,18.576338 64.366966,11.058968 
	C49.979561,2.317206 35.075359,2.556306 21.187450,12.190687 
	C7.518600,21.673101 2.185064,35.206997 4.785939,52.578007 
z"/> -->
<path fill="#FF9A32" opacity="1.000000" stroke="none" 
	d="
M4.725898,52.151291 
	C2.185064,35.206997 7.518600,21.673101 21.187450,12.190687 
	C35.075359,2.556306 49.979561,2.317206 64.366966,11.058968 
	C76.739250,18.576338 83.119934,30.065351 83.012489,44.728912 
	C82.907028,59.122108 76.633141,70.243385 64.551620,78.035912 
	C42.333672,92.366394 11.000344,80.600296 4.725898,52.151291 
M75.704262,55.417500 
	C59.402023,68.102409 40.588703,72.326302 19.314873,70.881706 
	C39.086067,88.681175 71.077972,79.997147 77.787491,55.902130 
	C77.669823,55.361134 77.552147,54.820133 77.434479,54.279137 
	C77.077415,54.589134 76.720352,54.899136 75.704262,55.417500 
M12.755226,42.331882 
	C33.603249,40.529377 49.461609,29.804989 62.767952,14.450327 
	C52.905933,6.790048 36.897766,6.577215 24.676113,13.893246 
	C14.231655,20.145426 6.846774,33.205238 8.465924,42.729095 
	C9.602263,42.625202 10.749038,42.520355 12.755226,42.331882 
M18.889494,54.220409 
	C15.686835,54.491249 12.484177,54.762089 9.281518,55.032928 
	C9.107647,55.518627 8.933776,56.004330 8.759905,56.490028 
	C10.323079,57.435612 11.839235,59.112858 13.456497,59.216785 
	C36.906643,60.723732 57.362160,54.032005 73.859421,36.719151 
	C78.340179,32.016876 78.428192,31.235052 73.380066,25.228420 
	C59.077560,41.442833 42.030746,52.740936 18.889494,54.220409 
M10.604819,46.028168 
	C6.465683,46.078064 7.931242,48.568954 8.261898,50.917019 
	C34.673317,52.433662 55.041454,41.718674 71.210419,22.342531 
	C69.353683,20.286476 67.743172,18.503069 65.795494,16.346302 
	C51.181652,33.018719 33.957352,44.393230 10.604819,46.028168 
M68.059937,46.576782 
	C52.097187,59.456699 33.477448,63.867088 13.028464,63.933041 
	C15.165991,65.951141 17.371397,67.272278 19.738375,67.700630 
	C22.317974,68.167473 25.047588,67.826569 27.711496,67.802925 
	C45.564926,67.644463 61.814896,62.864609 75.564774,51.032875 
	C80.777397,46.547436 81.199486,44.048634 78.206894,37.439068 
	C75.003975,40.336731 71.806732,43.229244 68.059937,46.576782 
z"/>
<path fill="#FFFEFD" opacity="1.000000" stroke="none" 
	d="
M12.325520,42.373695 
	C10.749038,42.520355 9.602263,42.625202 8.465924,42.729095 
	C6.846774,33.205238 14.231655,20.145426 24.676113,13.893246 
	C36.897766,6.577215 52.905933,6.790048 62.767952,14.450327 
	C49.461609,29.804989 33.603249,40.529377 12.325520,42.373695 
z"/>
<path fill="#FFFDFB" opacity="1.000000" stroke="none" 
	d="
M77.398499,56.359512 
	C71.077972,79.997147 39.086067,88.681175 19.314873,70.881706 
	C40.588703,72.326302 59.402023,68.102409 76.274597,55.617088 
	C77.029457,55.997620 77.213982,56.178566 77.398499,56.359512 
z"/>
<path fill="#FFFCF9" opacity="1.000000" stroke="none" 
	d="
M19.336731,54.191238 
	C42.030746,52.740936 59.077560,41.442833 73.380066,25.228420 
	C78.428192,31.235052 78.340179,32.016876 73.859421,36.719151 
	C57.362160,54.032005 36.906643,60.723732 13.456497,59.216785 
	C11.839235,59.112858 10.323079,57.435612 8.759905,56.490028 
	C8.933776,56.004330 9.107647,55.518627 9.281518,55.032928 
	C12.484177,54.762089 15.686835,54.491249 19.336731,54.191238 
z"/>
<path fill="#FFFDFB" opacity="1.000000" stroke="none" 
	d="
M11.058740,46.005474 
	C33.957352,44.393230 51.181652,33.018719 65.795494,16.346302 
	C67.743172,18.503069 69.353683,20.286476 71.210419,22.342531 
	C55.041454,41.718674 34.673317,52.433662 8.261898,50.917019 
	C7.931242,48.568954 6.465683,46.078064 11.058740,46.005474 
z"/>
<path fill="#FFFCFA" opacity="1.000000" stroke="none" 
	d="
M68.334717,46.349270 
	C71.806732,43.229244 75.003975,40.336731 78.206894,37.439068 
	C81.199486,44.048634 80.777397,46.547436 75.564774,51.032875 
	C61.814896,62.864609 45.564926,67.644463 27.711496,67.802925 
	C25.047588,67.826569 22.317974,68.167473 19.738375,67.700630 
	C17.371397,67.272278 15.165991,65.951141 13.028464,63.933041 
	C33.477448,63.867088 52.097187,59.456699 68.334717,46.349270 
z"/>
<path fill="#FFFDFB" opacity="1.000000" stroke="none" 
	d="
M76.604111,55.512905 
	C76.720352,54.899136 77.077415,54.589134 77.434479,54.279137 
	C77.552147,54.820133 77.669823,55.361134 77.592995,56.130821 
	C77.213982,56.178566 77.029457,55.997620 76.604111,55.512905 
z"/>
</svg>