<svg version="1.1" id="Layer_1" xmlns="http://www.w3.org/2000/svg" xmlns:xlink="http://www.w3.org/1999/xlink" x="0px" y="0px"
	 width="100%" viewBox="0 0 876 949" enable-background="new 0 0 876 949" xml:space="preserve">
<path fill="#000000" opacity="1.000000" stroke="none" 
	d="
M684.636658,722.071167 
	C700.636902,732.920654 716.310120,743.630005 732.007385,754.304077 
	C738.067749,758.425049 744.087646,762.618530 750.307922,766.486389 
	C754.110168,768.850647 754.662415,770.938538 752.008362,774.843384 
	C724.906372,814.716858 690.599670,847.047302 649.824890,872.547363 
	C594.215393,907.324890 533.367371,926.410706 468.193756,931.729126 
	C415.548096,936.025269 363.717560,931.061340 313.154480,915.394470 
	C274.094025,903.291809 238.872498,884.340576 209.291977,855.113831 
	C197.240082,841.923157 186.495392,828.198669 178.605133,812.412537 
	C166.816544,788.826965 160.458252,763.962830 159.885208,737.518066 
	C158.934708,693.655945 172.255035,654.684998 199.073761,620.156860 
	C199.685257,619.369568 200.219315,618.522095 200.962708,617.282959 
	C201.138245,616.617859 201.069519,616.393921 200.929749,616.191345 
	C161.098160,616.164429 121.266563,616.140930 81.434975,616.108032 
	C72.261803,616.100464 72.096474,615.945984 72.092926,606.969177 
	C72.082138,579.636902 72.076492,552.304688 72.100342,524.972412 
	C72.106857,517.507751 72.597626,517.020508 80.069466,517.018921 
	C144.066986,517.005371 208.064621,516.957581 272.061798,517.102173 
	C277.738525,517.114990 282.193207,515.541382 286.627533,512.004333 
	C320.240601,485.192383 354.014496,458.582123 387.729797,431.898285 
	C388.997467,430.895020 390.178436,429.782227 392.587097,427.688446 
	C388.885559,427.419586 386.557220,427.103088 384.228851,427.102570 
	C283.899414,427.079590 183.569977,427.085022 83.240547,427.085480 
	C72.092003,427.085541 72.088982,427.081360 72.088203,415.759125 
	C72.086426,389.760132 72.083420,363.761139 72.090347,337.762146 
	C72.092949,327.989044 72.104851,327.974762 81.756546,327.974518 
	C215.418015,327.971405 349.079590,327.914429 482.740723,328.126038 
	C490.242615,328.137939 495.753754,325.962463 500.752441,320.612823 
	C512.296814,308.257904 523.484863,295.601166 530.002441,279.788239 
	C542.974792,248.314789 541.366760,218.438461 518.000793,192.011078 
	C504.551361,176.799469 486.894714,167.973312 467.449615,163.236481 
	C414.745941,150.397812 366.275787,160.126907 322.402924,192.009567 
	C299.351166,208.761414 280.852448,229.877991 265.066528,253.469269 
	C261.229553,259.203430 261.192749,259.230591 255.428604,255.308899 
	C217.675034,229.623016 179.923035,203.934799 142.196960,178.208557 
	C136.317459,174.199203 136.216476,173.652817 140.009842,167.980270 
	C199.486984,79.038788 282.486633,27.834669 388.419006,14.084653 
	C416.337494,10.460833 444.424683,10.280140 472.644653,12.660573 
	C511.725739,15.957170 549.430237,24.109201 585.151123,40.356064 
	C625.846863,58.865646 659.823059,85.431381 682.488159,124.762108 
	C694.703430,145.959305 702.025940,168.731247 704.197327,193.281982 
	C708.380676,240.581573 697.775879,283.915192 670.951660,323.195007 
	C670.250854,324.221161 669.800842,325.418549 668.838684,327.315125 
	C671.816467,327.543854 674.050537,327.863068 676.284851,327.865082 
	C712.283447,327.897400 748.282104,327.881622 784.280701,327.896362 
	C792.669678,327.899780 792.984070,328.221802 792.988281,336.659760 
	C793.002014,363.825378 793.001343,390.990967 792.988831,418.156586 
	C792.984863,426.815002 792.806274,426.986450 783.883301,426.987305 
	C718.219177,426.993835 652.554871,427.055511 586.891174,426.885254 
	C580.690186,426.869171 575.836365,428.480835 571.001770,432.432434 
	C538.743530,458.799316 506.273010,484.906494 473.890839,511.121948 
	C472.283997,512.422791 470.857605,513.946411 468.217316,516.428467 
	C472.281769,516.644897 474.845459,516.900208 477.409210,516.900696 
	C578.905273,516.919678 680.401367,516.914917 781.897400,516.914978 
	C792.991211,516.914978 792.996155,516.919861 792.997437,527.789795 
	C793.000488,554.122070 793.004883,580.454407 792.995056,606.786682 
	C792.991638,615.904297 792.865723,616.035156 783.788696,616.035278 
	C649.460571,616.036804 515.132324,616.104126 380.804657,615.854919 
	C372.421875,615.839355 366.271362,618.457336 360.316650,623.954834 
	C344.287659,638.753113 331.421387,655.476624 327.104980,677.367188 
	C319.521912,715.824951 332.439362,753.292725 376.007599,771.406738 
	C390.775085,777.546448 406.210846,780.776367 422.019104,782.477417 
	C448.931580,785.373291 475.593842,784.378662 501.845062,777.175720 
	C534.244568,768.285706 562.376160,751.740112 586.055908,728.197815 
	C598.648499,715.678467 609.656128,701.547791 621.157715,687.956909 
	C625.511414,682.812317 625.358215,682.540588 631.107666,686.378235 
	C648.848145,698.219543 666.582458,710.070068 684.636658,722.071167 
z"/>
<path fill="#13171A" opacity="1.000000" stroke="none" 
	d="
M200.970154,616.420532 
	C201.069519,616.393921 201.138245,616.617859 201.118790,616.984619 
	C201.101669,617.105957 201.010559,616.649658 200.970154,616.420532 
z"/>
</svg>