<svg class="svg-standalone-icon" width="100%" viewBox="200.36563245823388 119.94840095465392 149.26873508353228 149.26873508353222"><g data-paper-data="{&quot;isIcon&quot;:&quot;true&quot;,&quot;iconType&quot;:&quot;icon&quot;,&quot;rawIconId&quot;:&quot;1954281&quot;,&quot;selectedEffects&quot;:{&quot;container&quot;:&quot;&quot;,&quot;transformation&quot;:&quot;&quot;,&quot;pattern&quot;:&quot;&quot;},&quot;isDetailed&quot;:false,&quot;fillRule&quot;:&quot;evenodd&quot;,&quot;bounds&quot;:{&quot;x&quot;:200.36563245823388,&quot;y&quot;:119.94840095465392,&quot;width&quot;:149.26873508353228,&quot;height&quot;:149.26873508353222},&quot;iconStyle&quot;:&quot;standalone&quot;,&quot;suitableAsStandaloneIcon&quot;:true}" fill-rule="evenodd"><path d="M200.36563,194.58277c0,-41.15308 33.48129,-74.63437 74.63437,-74.63437c41.15308,0 74.63437,33.48129 74.63437,74.63437c0,41.15308 -33.48129,74.63437 -74.63437,74.63437c-41.15308,0 -74.63437,-33.48129 -74.63437,-74.63437zM312.33739,137.29934c-10.74424,-7.02807 -23.56735,-11.1314 -37.33739,-11.1314c-36.6548,0 -66.66248,28.97835 -68.33398,65.22732c34.06904,-0.80387 65.98456,-14.41065 90.16609,-38.59063zM312.38094,168.3519l16.21587,-16.21432c-3.2777,-4.13133 -7.0203,-7.87393 -11.15162,-11.15162l-16.21587,16.21432c-25.35858,25.35858 -58.83832,39.61064 -94.56796,40.41451c0.14149,3.1984 0.51156,6.33614 1.07753,9.40704h11.2869c35.26474,0 68.41794,-13.73272 93.35515,-38.66993zM234.57461,222.57066c35.26474,0 68.41794,-13.73272 93.35515,-38.66993l11.7036,-11.7036c-1.84409,-5.31148 -4.32258,-10.32442 -7.34993,-14.95331l-15.50529,15.50529c-26.11115,26.11115 -60.82701,40.49226 -97.75236,40.49226h-9.83308c0.91272,3.21239 2.05245,6.32682 3.40364,9.3293zM343.20182,199.71388c0.1275,-1.69638 0.21302,-3.40364 0.21302,-5.13111c0,-5.35502 -0.6375,-10.56076 -1.80677,-15.56438l-9.2811,9.27954c-26.11115,26.11115 -60.82701,40.49226 -97.75236,40.49226h-18.78609c1.90784,3.28858 4.06602,6.41544 6.47608,9.3293h27.85883c35.13724,0 68.17228,-13.64098 93.07839,-38.4056zM228.11718,244.33902c12.25558,11.55433 28.74978,18.65859 46.88282,18.65859c32.56546,0 59.87076,-22.87855 66.73557,-53.40244c-25.29794,22.45095 -57.50423,34.74385 -91.61213,34.74385z" data-paper-data="{&quot;isPathIcon&quot;:true}" style="fill: rgb(255, 143, 28);"></path></g></svg>